<svg width="2947" height="1257" xmlns="http://www.w3.org/2000/svg" xmlns:xlink="http://www.w3.org/1999/xlink" xml:space="preserve" overflow="hidden"><g transform="translate(-190 -159)"><path d="M288.5 502.917 1562.43 502.917 1562.43 512.084 288.5 512.083ZM1557.84 493.75 1585.34 507.5 1557.84 521.25Z"/><path d="M604.5 473.5 604.501 544.421" stroke="#000000" stroke-width="4.58333" stroke-miterlimit="8" fill="none" fill-rule="evenodd"/><path d="M890.5 472.5 890.501 543.421" stroke="#000000" stroke-width="4.58333" stroke-miterlimit="8" fill="none" fill-rule="evenodd"/><path d="M1176.5 472.5 1176.5 543.421" stroke="#000000" stroke-width="4.58333" stroke-miterlimit="8" fill="none" fill-rule="evenodd"/><path d="M1462.5 472.5 1462.5 543.421" stroke="#000000" stroke-width="4.58333" stroke-miterlimit="8" fill="none" fill-rule="evenodd"/><path d="M318.5 159.5 318.501 543.052" stroke="#000000" stroke-width="4.58333" stroke-miterlimit="8" fill="none" fill-rule="evenodd"/><path d="M919.5 472.5 919.5 543.421" stroke="#000000" stroke-width="4.58333" stroke-miterlimit="8" fill="none" fill-rule="evenodd"/><path d="M347.5 473.5 347.5 544.421" stroke="#000000" stroke-width="4.58333" stroke-miterlimit="8" fill="none" fill-rule="evenodd"/><path d="M318.5 398.5 345.654 398.5 345.654 506.645 890.154 506.645" stroke="#FFC000" stroke-width="9.16667" stroke-miterlimit="8" fill="none" fill-rule="evenodd"/><path d="M890.5 507.799 890.5 410.306 919.083 410.306 919.083 412.5" stroke="#FFC000" stroke-width="9.16667" stroke-miterlimit="8" fill="none" fill-rule="evenodd"/><path d="M890.5 412.5 918.517 412.5 918.517 507.799 1462.15 507.799" stroke="#FFC000" stroke-width="9.16667" stroke-miterlimit="8" fill="none" fill-rule="evenodd"/><text font-family="Noto Sans Mono CJK JP Regular,Noto Sans Mono CJK JP Regular_MSFontService,sans-serif" font-weight="400" font-size="50" transform="matrix(1 0 0 1 305.784 606)">0</text><text font-family="Noto Sans Mono CJK JP Regular,Noto Sans Mono CJK JP Regular_MSFontService,sans-serif" font-weight="400" font-size="50" transform="matrix(1 0 0 1 566.402 604)">100</text><text font-family="Noto Sans Mono CJK JP Regular,Noto Sans Mono CJK JP Regular_MSFontService,sans-serif" font-weight="400" font-size="50" transform="matrix(1 0 0 1 798.331 604)">200</text><text font-family="Noto Sans Mono CJK JP Regular,Noto Sans Mono CJK JP Regular_MSFontService,sans-serif" font-weight="400" font-size="50" transform="matrix(1 0 0 1 923.91 604)">210</text><text font-family="Noto Sans Mono CJK JP Regular,Noto Sans Mono CJK JP Regular_MSFontService,sans-serif" font-weight="400" font-size="50" transform="matrix(1 0 0 1 1141.1 604)">300</text><text font-family="Noto Sans Mono CJK JP Regular,Noto Sans Mono CJK JP Regular_MSFontService,sans-serif" font-weight="400" font-size="50" transform="matrix(1 0 0 1 1423.88 604)">400</text><text font-family="Noto Sans Mono CJK JP Regular,Noto Sans Mono CJK JP Regular_MSFontService,sans-serif" font-weight="400" font-size="50" transform="matrix(1 0 0 1 345.528 604)">10</text><text font-family="Noto Sans Mono CJK JP Regular,Noto Sans Mono CJK JP Regular_MSFontService,sans-serif" font-weight="400" font-size="50" transform="matrix(1 0 0 1 237.258 533)">0</text><text font-family="Noto Sans Mono CJK JP Regular,Noto Sans Mono CJK JP Regular_MSFontService,sans-serif" font-weight="400" font-size="50" transform="matrix(1 0 0 1 237.258 426)">1</text><text font-family="Noto Sans Mono CJK JP Regular,Noto Sans Mono CJK JP Regular_MSFontService,sans-serif" font-weight="400" font-size="64" transform="matrix(1 0 0 1 503.291 715)">200</text><text font-family="Noto Sans Mono CJK JP Regular,Noto Sans Mono CJK JP Regular_MSFontService,sans-serif" font-weight="400" font-size="64" transform="matrix(1 0 0 1 599.542 715)">回のうち</text><text font-family="Noto Sans Mono CJK JP Regular,Noto Sans Mono CJK JP Regular_MSFontService,sans-serif" font-weight="400" font-size="64" transform="matrix(1 0 0 1 856.208 715)">10</text><text font-family="Noto Sans Mono CJK JP Regular,Noto Sans Mono CJK JP Regular_MSFontService,sans-serif" font-weight="400" font-size="64" transform="matrix(1 0 0 1 920.375 715)">回だけつける</text><path d="M290.5 1148.92 1564.43 1148.92 1564.43 1158.08 290.5 1158.08ZM1559.84 1139.75 1587.34 1153.5 1559.84 1167.25Z"/><path d="M607.5 1118.5 607.5 1189.42" stroke="#000000" stroke-width="4.58333" stroke-miterlimit="8" fill="none" fill-rule="evenodd"/><path d="M893.5 1118.5 893.5 1189.42" stroke="#000000" stroke-width="4.58333" stroke-miterlimit="8" fill="none" fill-rule="evenodd"/><path d="M1178.5 1118.5 1178.5 1189.42" stroke="#000000" stroke-width="4.58333" stroke-miterlimit="8" fill="none" fill-rule="evenodd"/><path d="M1464.5 1118.5 1464.5 1189.42" stroke="#000000" stroke-width="4.58333" stroke-miterlimit="8" fill="none" fill-rule="evenodd"/><path d="M321.5 805.5 321.5 1189.05" stroke="#000000" stroke-width="4.58333" stroke-miterlimit="8" fill="none" fill-rule="evenodd"/><path d="M321.5 1044.5 607.327 1044.5 607.327 1153.53 893.154 1153.53" stroke="#FFC000" stroke-width="9.16667" stroke-miterlimit="8" fill="none" fill-rule="evenodd"/><text font-family="Noto Sans Mono CJK JP Regular,Noto Sans Mono CJK JP Regular_MSFontService,sans-serif" font-weight="400" font-size="50" transform="matrix(1 0 0 1 308.294 1251)">0</text><text font-family="Noto Sans Mono CJK JP Regular,Noto Sans Mono CJK JP Regular_MSFontService,sans-serif" font-weight="400" font-size="50" transform="matrix(1 0 0 1 568.913 1250)">100</text><text font-family="Noto Sans Mono CJK JP Regular,Noto Sans Mono CJK JP Regular_MSFontService,sans-serif" font-weight="400" font-size="50" transform="matrix(1 0 0 1 800.842 1250)">200</text><text font-family="Noto Sans Mono CJK JP Regular,Noto Sans Mono CJK JP Regular_MSFontService,sans-serif" font-weight="400" font-size="50" transform="matrix(1 0 0 1 1143.61 1250)">300</text><text font-family="Noto Sans Mono CJK JP Regular,Noto Sans Mono CJK JP Regular_MSFontService,sans-serif" font-weight="400" font-size="50" transform="matrix(1 0 0 1 1426.39 1250)">400</text><text font-family="Noto Sans Mono CJK JP Regular,Noto Sans Mono CJK JP Regular_MSFontService,sans-serif" font-weight="400" font-size="50" transform="matrix(1 0 0 1 239.769 1179)">0</text><text font-family="Noto Sans Mono CJK JP Regular,Noto Sans Mono CJK JP Regular_MSFontService,sans-serif" font-weight="400" font-size="50" transform="matrix(1 0 0 1 239.769 1072)">1</text><text font-family="Noto Sans Mono CJK JP Regular,Noto Sans Mono CJK JP Regular_MSFontService,sans-serif" font-weight="400" font-size="64" transform="matrix(1 0 0 1 489.76 1360)">200</text><text font-family="Noto Sans Mono CJK JP Regular,Noto Sans Mono CJK JP Regular_MSFontService,sans-serif" font-weight="400" font-size="64" transform="matrix(1 0 0 1 586.01 1360)">回のうち</text><text font-family="Noto Sans Mono CJK JP Regular,Noto Sans Mono CJK JP Regular_MSFontService,sans-serif" font-weight="400" font-size="64" transform="matrix(1 0 0 1 842.677 1360)">100</text><text font-family="Noto Sans Mono CJK JP Regular,Noto Sans Mono CJK JP Regular_MSFontService,sans-serif" font-weight="400" font-size="64" transform="matrix(1 0 0 1 938.927 1360)">回だけつける</text><path d="M0 0-8.65393 0-8.65393 105.865 280.608 105.865" stroke="#FFC000" stroke-width="9.16667" stroke-miterlimit="8" fill="none" fill-rule="evenodd" transform="matrix(1 0 0 -1 901.5 1150.37)"/><path d="M321.5 1044.5 607.327 1044.5 607.327 1153.53 893.154 1153.53" stroke="#FFC000" stroke-width="9.16667" stroke-miterlimit="8" fill="none" fill-rule="evenodd"/><path d="M1178.5 1044.5 1179.7 1044.5 1179.7 1152.94 1469.66 1152.94" stroke="#FFC000" stroke-width="9.16667" stroke-miterlimit="8" fill="none" fill-rule="evenodd"/><path d="M1811.5 505.917 3085.43 505.917 3085.43 515.084 1811.5 515.083ZM3080.84 496.75 3108.34 510.5 3080.84 524.25Z"/><path d="M2127.5 475.5 2127.5 546.421" stroke="#000000" stroke-width="4.58333" stroke-miterlimit="8" fill="none" fill-rule="evenodd"/><path d="M2413.5 474.5 2413.5 545.421" stroke="#000000" stroke-width="4.58333" stroke-miterlimit="8" fill="none" fill-rule="evenodd"/><path d="M2699.5 474.5 2699.5 545.421" stroke="#000000" stroke-width="4.58333" stroke-miterlimit="8" fill="none" fill-rule="evenodd"/><path d="M2985.5 474.5 2985.5 545.421" stroke="#000000" stroke-width="4.58333" stroke-miterlimit="8" fill="none" fill-rule="evenodd"/><path d="M1842.5 162.5 1842.5 546.052" stroke="#000000" stroke-width="4.58333" stroke-miterlimit="8" fill="none" fill-rule="evenodd"/><text font-family="Noto Sans Mono CJK JP Regular,Noto Sans Mono CJK JP Regular_MSFontService,sans-serif" font-weight="400" font-size="50" transform="matrix(1 0 0 1 1829.04 608)">0</text><text font-family="Noto Sans Mono CJK JP Regular,Noto Sans Mono CJK JP Regular_MSFontService,sans-serif" font-weight="400" font-size="50" transform="matrix(1 0 0 1 2089.66 606)">100</text><text font-family="Noto Sans Mono CJK JP Regular,Noto Sans Mono CJK JP Regular_MSFontService,sans-serif" font-weight="400" font-size="50" transform="matrix(1 0 0 1 2321.59 606)">200</text><text font-family="Noto Sans Mono CJK JP Regular,Noto Sans Mono CJK JP Regular_MSFontService,sans-serif" font-weight="400" font-size="50" transform="matrix(1 0 0 1 2664.35 606)">300</text><text font-family="Noto Sans Mono CJK JP Regular,Noto Sans Mono CJK JP Regular_MSFontService,sans-serif" font-weight="400" font-size="50" transform="matrix(1 0 0 1 2947.14 606)">400</text><text font-family="Noto Sans Mono CJK JP Regular,Noto Sans Mono CJK JP Regular_MSFontService,sans-serif" font-weight="400" font-size="50" transform="matrix(1 0 0 1 1760.51 536)">0</text><text font-family="Noto Sans Mono CJK JP Regular,Noto Sans Mono CJK JP Regular_MSFontService,sans-serif" font-weight="400" font-size="50" transform="matrix(1 0 0 1 1760.51 429)">1</text><text font-family="Noto Sans Mono CJK JP Regular,Noto Sans Mono CJK JP Regular_MSFontService,sans-serif" font-weight="400" font-size="64" transform="matrix(1 0 0 1 2026.55 717)">200</text><text font-family="Noto Sans Mono CJK JP Regular,Noto Sans Mono CJK JP Regular_MSFontService,sans-serif" font-weight="400" font-size="64" transform="matrix(1 0 0 1 2122.8 717)">回のうち</text><text font-family="Noto Sans Mono CJK JP Regular,Noto Sans Mono CJK JP Regular_MSFontService,sans-serif" font-weight="400" font-size="64" transform="matrix(1 0 0 1 2379.46 717)">50</text><text font-family="Noto Sans Mono CJK JP Regular,Noto Sans Mono CJK JP Regular_MSFontService,sans-serif" font-weight="400" font-size="64" transform="matrix(1 0 0 1 2443.63 717)">回だけつける</text><path d="M1985.5 474.5 1985.5 545.421" stroke="#000000" stroke-width="4.58333" stroke-miterlimit="8" fill="none" fill-rule="evenodd"/><text font-family="Noto Sans Mono CJK JP Regular,Noto Sans Mono CJK JP Regular_MSFontService,sans-serif" font-weight="400" font-size="50" transform="matrix(1 0 0 1 1960.87 608)">50</text><path d="M2557.5 478.5 2557.5 549.421" stroke="#000000" stroke-width="4.58333" stroke-miterlimit="8" fill="none" fill-rule="evenodd"/><text font-family="Noto Sans Mono CJK JP Regular,Noto Sans Mono CJK JP Regular_MSFontService,sans-serif" font-weight="400" font-size="50" transform="matrix(1 0 0 1 2518.4 609)">250</text><path d="M0 0-1.05132 0-1.05132 109.027 142.271 109.027" stroke="#FFC000" stroke-width="9.16667" stroke-miterlimit="8" fill="none" fill-rule="evenodd" transform="matrix(1 0 0 -1 2413.5 509.527)"/><path d="M2555.5 401.5 2560.08 401.5 2560.08 509.939 2990.9 509.939" stroke="#FFC000" stroke-width="9.16667" stroke-miterlimit="8" fill="none" fill-rule="evenodd"/><path d="M1842.5 401.5 1985.67 401.5 1985.67 510.527 2414.15 510.527" stroke="#FFC000" stroke-width="9.16667" stroke-miterlimit="8" fill="none" fill-rule="evenodd"/><path d="M1799.5 1148.92 3073.43 1148.92 3073.43 1158.08 1799.5 1158.08ZM3068.84 1139.75 3096.34 1153.5 3068.84 1167.25Z"/><path d="M2116.5 1118.5 2116.5 1189.42" stroke="#000000" stroke-width="4.58333" stroke-miterlimit="8" fill="none" fill-rule="evenodd"/><path d="M2401.5 1118.5 2401.5 1189.42" stroke="#000000" stroke-width="4.58333" stroke-miterlimit="8" fill="none" fill-rule="evenodd"/><path d="M2687.5 1118.5 2687.5 1189.42" stroke="#000000" stroke-width="4.58333" stroke-miterlimit="8" fill="none" fill-rule="evenodd"/><path d="M2973.5 1118.5 2973.5 1189.42" stroke="#000000" stroke-width="4.58333" stroke-miterlimit="8" fill="none" fill-rule="evenodd"/><path d="M1830.5 805.5 1830.5 1189.05" stroke="#000000" stroke-width="4.58333" stroke-miterlimit="8" fill="none" fill-rule="evenodd"/><text font-family="Noto Sans Mono CJK JP Regular,Noto Sans Mono CJK JP Regular_MSFontService,sans-serif" font-weight="400" font-size="50" transform="matrix(1 0 0 1 1817.18 1251)">0</text><text font-family="Noto Sans Mono CJK JP Regular,Noto Sans Mono CJK JP Regular_MSFontService,sans-serif" font-weight="400" font-size="50" transform="matrix(1 0 0 1 2077.8 1250)">100</text><text font-family="Noto Sans Mono CJK JP Regular,Noto Sans Mono CJK JP Regular_MSFontService,sans-serif" font-weight="400" font-size="50" transform="matrix(1 0 0 1 2365.15 1252)">200</text><text font-family="Noto Sans Mono CJK JP Regular,Noto Sans Mono CJK JP Regular_MSFontService,sans-serif" font-weight="400" font-size="50" transform="matrix(1 0 0 1 2652.5 1250)">300</text><text font-family="Noto Sans Mono CJK JP Regular,Noto Sans Mono CJK JP Regular_MSFontService,sans-serif" font-weight="400" font-size="50" transform="matrix(1 0 0 1 2935.28 1250)">400</text><text font-family="Noto Sans Mono CJK JP Regular,Noto Sans Mono CJK JP Regular_MSFontService,sans-serif" font-weight="400" font-size="50" transform="matrix(1 0 0 1 1748.66 1179)">0</text><text font-family="Noto Sans Mono CJK JP Regular,Noto Sans Mono CJK JP Regular_MSFontService,sans-serif" font-weight="400" font-size="50" transform="matrix(1 0 0 1 1748.66 1072)">1</text><text font-family="Noto Sans Mono CJK JP Regular,Noto Sans Mono CJK JP Regular_MSFontService,sans-serif" font-weight="400" font-size="64" transform="matrix(1 0 0 1 2078.86 1360)">200</text><text font-family="Noto Sans Mono CJK JP Regular,Noto Sans Mono CJK JP Regular_MSFontService,sans-serif" font-weight="400" font-size="64" transform="matrix(1 0 0 1 2175.11 1360)">回ずっとつけている</text><path d="M1830.5 1034.5 2999.25 1034.5" stroke="#FFC000" stroke-width="9.16667" stroke-miterlimit="8" fill="none" fill-rule="evenodd"/></g></svg>