<?xml version="1.0" encoding="utf-8"?>
<svg width="205.42952mm" height="172.77237mm" viewBox="-17.327 -25.739 267.036 236.93" version="1.1" id="svg12066" xmlns="http://www.w3.org/2000/svg">
  <g id="layer1" transform="matrix(1, 0, 0, 1, -6.440754, 25.514675)">
    <path d="M 123.466 22.055 L 109.448 22.055 L 106.578 17.035 C 105.863 15.781 104.524 15.006 103.079 15.006 L 82.178 15.006 C 80.789 15.006 79.661 16.133 79.661 17.523 L 79.661 47.733 C 79.661 49.123 80.789 50.251 82.178 50.251 L 123.466 50.251 C 124.855 50.251 125.983 49.123 125.983 47.733 L 125.983 24.572 C 125.983 23.182 124.855 22.055 123.466 22.055 Z M 81.675 17.523 C 81.675 17.246 81.901 17.02 82.178 17.02 L 103.084 17.02 C 103.804 17.02 104.473 17.407 104.831 18.037 L 107.127 22.055 L 81.675 22.055 L 81.675 17.523 Z M 123.969 24.069 L 123.969 48.237 L 81.675 48.237 L 81.675 24.069 L 123.969 24.069 Z" id="path12070" style="stroke-width:0.0503504"/>
    <path d="m 123.14365,66.236759 h -14.01756 l -2.86997,-5.019933 c -0.71497,-1.253725 -2.05429,-2.029118 -3.49935,-2.029118 H 81.856316 c -1.38967,0 -2.51752,1.127849 -2.51752,2.517518 v 30.210239 c 0,1.389669 1.12785,2.517518 2.51752,2.517518 h 41.287334 c 1.38967,0 2.51752,-1.127849 2.51752,-2.517518 V 68.754278 c 0,-1.38967 -1.12785,-2.517519 -2.51752,-2.517519 z M 81.352806,61.705226 c 0,-0.276932 0.22658,-0.503503 0.50351,-0.503503 h 20.905494 c 0.72,0 1.38967,0.387696 1.74716,1.017076 l 2.29597,4.01796 H 81.352806 Z m 42.294344,6.545548 V 92.418969 H 81.352806 V 68.250774 Z" id="path12070-5" style="stroke-width:0.0503504"/>
    <path d="m 49.904748,155.48306 h -14.01756 l -2.86997,-5.01993 c -0.71497,-1.25372 -2.05429,-2.02912 -3.49935,-2.02912 H 8.6174181 c -1.38967,0 -2.51752,1.12785 -2.51752,2.51752 v 30.21024 c 0,1.38967 1.12785,2.51752 2.51752,2.51752 H 49.904748 c 1.38967,0 2.51752,-1.12785 2.51752,-2.51752 v -23.16119 c 0,-1.38967 -1.12785,-2.51752 -2.51752,-2.51752 z M 8.1139081,150.95153 c 0,-0.27693 0.22658,-0.5035 0.50351,-0.5035 H 29.522908 c 0.72,0 1.38967,0.38769 1.74716,1.01707 l 2.29597,4.01796 H 8.1139081 Z m 42.2943399,6.54555 v 24.16819 H 8.1139081 v -24.16819 z" id="path12070-5-1" style="stroke-width:0.0503504"/>
    <path d="m 157.43923,155.1173 h -14.01756 l -2.86997,-5.01994 c -0.71497,-1.25372 -2.05429,-2.02912 -3.49935,-2.02912 H 116.1519 c -1.38967,0 -2.51752,1.12785 -2.51752,2.51752 V 180.796 c 0,1.38967 1.12785,2.51752 2.51752,2.51752 h 41.28733 c 1.38967,0 2.51752,-1.12785 2.51752,-2.51752 v -23.16119 c 0,-1.38966 -1.12785,-2.51751 -2.51752,-2.51751 z m -41.79084,-4.53154 c 0,-0.27693 0.22658,-0.5035 0.50351,-0.5035 h 20.90549 c 0.72,0 1.38967,0.3877 1.74716,1.01708 l 2.29597,4.01796 h -25.45213 z m 42.29434,6.54555 v 24.1682 h -42.29434 v -24.1682 z" id="path12070-5-3" style="stroke-width:0.0503504"/>
    <path d="m 49.904745,114.15178 h -14.01755 l -2.86997,-5.01993 c -0.71497,-1.25373 -2.05429,-2.02912 -3.49935,-2.02912 H 8.6174211 c -1.38967,0 -2.51752,1.12785 -2.51752,2.51752 v 30.21024 c 0,1.38967 1.12785,2.51752 2.51752,2.51752 H 49.904745 c 1.38967,0 2.51752,-1.12785 2.51752,-2.51752 V 116.6693 c 0,-1.38967 -1.12785,-2.51752 -2.51752,-2.51752 z M 8.1139111,109.62025 c 0,-0.27693 0.22658,-0.5035 0.50351,-0.5035 H 29.522915 c 0.72,0 1.38967,0.38769 1.74716,1.01707 l 2.29596,4.01796 H 8.1139111 Z m 42.2943339,6.54555 v 24.16819 H 8.1139111 V 116.1658 Z" id="path12070-5-6" style="stroke-width:0.0503504"/>
    <path d="M 104.03775,114.15179 H 90.020193 l -2.86997,-5.01994 c -0.71497,-1.25373 -2.05429,-2.02912 -3.49935,-2.02912 H 62.750424 c -1.38967,0 -2.51752,1.12785 -2.51752,2.51751 v 30.21024 c 0,1.38967 1.12785,2.51752 2.51752,2.51752 h 41.287326 c 1.38967,0 2.51752,-1.12785 2.51752,-2.51752 V 116.6693 c 0,-1.38966 -1.12785,-2.51752 -2.51752,-2.51751 z m -41.790836,-4.53155 c 0,-0.27692 0.22658,-0.5035 0.50351,-0.5035 h 20.905489 c 0.72,0 1.38967,0.3877 1.74716,1.01708 l 2.29597,4.01796 H 62.246914 Z m 42.294336,6.54556 V 140.334 H 62.246914 v -24.1682 z" id="path12070-5-9" style="stroke-width:0.0503504"/>
    <path d="m 157.43923,114.15179 h -14.01756 l -2.86997,-5.01993 c -0.71497,-1.25374 -2.05429,-2.02913 -3.49935,-2.02913 H 116.1519 c -1.38967,0 -2.51752,1.12785 -2.51752,2.51753 v 30.21024 c 0,1.38966 1.12785,2.5175 2.51752,2.5175 h 41.28733 c 1.38967,0 2.51752,-1.12784 2.51752,-2.5175 v -23.16119 c 0,-1.38967 -1.12785,-2.51752 -2.51752,-2.51752 z m -41.79084,-4.53153 c 0,-0.27693 0.22658,-0.50352 0.50351,-0.50352 h 20.90549 c 0.72,0 1.38967,0.3877 1.74716,1.01709 l 2.29597,4.01796 h -25.45213 z m 42.29434,6.54555 V 140.334 h -42.29434 v -24.16819 z" id="path12070-5-4" style="stroke-width:0.0503504"/>
    <path d="M 209.37766,114.15179 H 195.3601 l -2.86997,-5.01993 c -0.71497,-1.25374 -2.05429,-2.02913 -3.49935,-2.02913 h -20.90045 c -1.38967,0 -2.51752,1.12785 -2.51752,2.51753 v 30.21022 c 0,1.38967 1.12785,2.51752 2.51752,2.51752 h 41.28733 c 1.38967,0 2.51752,-1.12785 2.51752,-2.51752 v -23.16117 c 0,-1.38967 -1.12785,-2.51752 -2.51752,-2.51752 z m -41.79084,-4.53153 c 0,-0.27694 0.22658,-0.50352 0.50351,-0.50352 h 20.90549 c 0.72,0 1.38967,0.3877 1.74716,1.01709 l 2.29597,4.01796 h -25.45213 z m 42.29434,6.54554 v 24.16819 h -42.29434 v -24.1682 z" id="path12070-5-0" style="stroke-width:0.0503504"/>
    <path style="fill: none; stroke: rgb(0, 0, 0); stroke-width: 1.065; stroke-linecap: butt; stroke-linejoin: miter; stroke-miterlimit: 4; stroke-dasharray: none; stroke-opacity: 1;" d="M 102.5 48.508 C 102.5 58.992 102.5 59.254 102.5 59.254" id="path12229"/>
    <path style="fill:none;stroke:#000000;stroke-width:1.065;stroke-linecap:butt;stroke-linejoin:miter;stroke-miterlimit:4;stroke-dasharray:none;stroke-opacity:1" d="m 24.506157,107.53448 c 0,0 0,0 77.907633,-13.899014 C 87.699043,114.15178 87.699043,114.15178 87.699043,114.15178" id="path12344"/>
    <path style="fill:none;stroke:#000000;stroke-width:1.065;stroke-linecap:butt;stroke-linejoin:miter;stroke-miterlimit:4;stroke-dasharray:none;stroke-opacity:1" d="m 125.09113,107.90024 c 0,0 0,0 -22.67734,-14.264776 73.51848,14.264786 73.51848,14.264786 73.51848,14.264786" id="path12346"/>
    <path style="fill:none;stroke:#000000;stroke-width:1.065;stroke-linecap:butt;stroke-linejoin:miter;stroke-miterlimit:4;stroke-dasharray:none;stroke-opacity:1" d="m 29.261083,141.18473 c 0,6.9495 0,6.9495 0,6.9495" id="path12348"/>
    <path style="fill:none;stroke:#000000;stroke-width:1.065;stroke-linecap:butt;stroke-linejoin:miter;stroke-miterlimit:4;stroke-dasharray:none;stroke-opacity:1" d="m 134.60098,141.91625 v 6.94951" id="path12385"/>
    <text style="font-style: normal; font-weight: normal; font-size: 10.5833px; line-height: 1.25; font-family: sans-serif; fill: rgb(0, 0, 0); fill-opacity: 1; stroke: none; stroke-width: 0.264583; white-space: pre;" x="88.022" y="39.216" id="text16043"><tspan id="tspan16041" style="stroke-width: 0.264583; font-size: 10.6px; word-spacing: 0px;" x="88.022" y="39.216">home</tspan></text>
    <text style="font-style: normal; font-weight: normal; font-size: 10.5833px; line-height: 1.25; font-family: sans-serif; fill: rgb(0, 0, 0); fill-opacity: 1; stroke: none; stroke-width: 0.264583; white-space: pre;" x="97.68634" y="79.730057" id="text17037"><tspan id="tspan17035" style="stroke-width:0.264583" x="97.68634" y="79.730057">pi</tspan></text>
    <text style="font-style: normal; font-weight: normal; font-size: 10.5833px; line-height: 1.25; font-family: sans-serif; fill: rgb(0, 0, 0); fill-opacity: 1; stroke: none; stroke-width: 0.264583; white-space: pre;" x="7.2082362" y="127.64508" id="text18625"><tspan id="tspan18623" style="stroke-width:0.264583" x="7.2082362" y="127.64508">Desktop</tspan></text>
    <text style="font-style: normal; font-weight: normal; font-size: 10.5833px; line-height: 1.25; font-family: sans-serif; fill: rgb(0, 0, 0); fill-opacity: 1; stroke: none; stroke-width: 0.264583; white-space: pre;" x="62.178394" y="128.67085" id="text19325"><tspan id="tspan19323" style="stroke-width:0.264583" x="62.178394" y="128.67085">Pictures</tspan></text>
    <text style="font-style: normal; font-weight: normal; font-size: 10.5833px; line-height: 1.25; font-family: sans-serif; fill: rgb(0, 0, 0); fill-opacity: 1; stroke: none; stroke-width: 0.264583; white-space: pre;" x="122.21769" y="128.67085" id="text20439"><tspan id="tspan20437" style="stroke-width:0.264583" x="122.21769" y="128.67085">Video</tspan></text>
    <text style="font-style: normal; font-weight: normal; font-size: 10.5833px; line-height: 1.25; font-family: sans-serif; fill: rgb(0, 0, 0); fill-opacity: 1; stroke: none; stroke-width: 0.264583; white-space: pre;" x="173.48691" y="128.67085" id="text21013"><tspan id="tspan21011" style="stroke-width:0.264583" x="173.48691" y="128.67085">Music</tspan></text>
    <text style="font-style: normal; font-weight: normal; font-size: 10.5833px; line-height: 1.25; font-family: sans-serif; fill: rgb(0, 0, 0); fill-opacity: 1; stroke: none; stroke-width: 0.264583; white-space: pre;" x="17.838043" y="170.00214" id="text22271"><tspan id="tspan22269" style="stroke-width:0.264583" x="17.838043" y="170.00214">Web</tspan></text>
    <text style="font-style: normal; font-weight: normal; font-size: 10.5833px; line-height: 1.25; font-family: sans-serif; fill: rgb(0, 0, 0); fill-opacity: 1; stroke: none; stroke-width: 0.264583; white-space: pre;" x="125.34152" y="168.6106" id="text23067"><tspan id="tspan23065" style="stroke-width:0.264583" x="125.34152" y="168.6106">Eiga</tspan></text>
    <path d="M 123.61 -21.549 L 109.592 -21.549 L 106.722 -26.568 C 106.007 -27.822 104.668 -28.598 103.223 -28.598 L 82.322 -28.598 C 80.933 -28.598 79.805 -27.47 79.805 -26.08 L 79.805 4.13 C 79.805 5.52 80.933 6.648 82.322 6.648 L 123.61 6.648 C 124.999 6.648 126.127 5.52 126.127 4.13 L 126.127 -19.031 C 126.127 -20.421 124.999 -21.549 123.61 -21.549 Z M 81.819 -26.08 C 81.819 -26.357 82.045 -26.584 82.322 -26.584 L 103.228 -26.584 C 103.948 -26.584 104.617 -26.196 104.975 -25.566 L 107.271 -21.549 L 81.819 -21.549 L 81.819 -26.08 Z M 124.113 -19.534 L 124.113 4.634 L 81.819 4.634 L 81.819 -19.534 L 124.113 -19.534 Z" id="path-1" style="stroke-width:0.0503504"/>
    <text style="font-style: normal; font-weight: normal; font-size: 10.5833px; line-height: 1.25; font-family: sans-serif; fill: rgb(0, 0, 0); fill-opacity: 1; stroke: none; stroke-width: 0.264583; white-space: pre;" x="99.546" y="-5.577" id="text-1"><tspan id="tspan-1" style="stroke-width: 0.264583; font-size: 10.6px; word-spacing: 0px;" x="99.546" y="-5.577">/</tspan></text>
    <path style="fill: none; stroke: rgb(0, 0, 0); stroke-width: 1.065; stroke-linecap: butt; stroke-linejoin: miter; stroke-miterlimit: 4; stroke-dasharray: none; stroke-opacity: 1;" d="M 102.373 5.028 C 102.373 14.741 102.373 14.984 102.373 14.984" id="path-2"/>
  </g>
</svg>