<svg width="1280" height="720" xmlns="http://www.w3.org/2000/svg" xmlns:xlink="http://www.w3.org/1999/xlink" overflow="hidden"><g><rect x="0" y="0" width="1280" height="720" fill="#FFFFFF"/><path d="M131 281.501C131 258.028 150.028 239 173.501 239L343.499 239C366.972 239 386 258.028 386 281.501L386 458.499C386 481.972 366.972 501 343.499 501L173.501 501C150.028 501 131 481.972 131 458.499Z" stroke="#ED7D31" stroke-width="2" stroke-miterlimit="8" fill="#F4B183" fill-rule="evenodd"/><text font-family="Yu Gothic,Yu Gothic_MSFontService,sans-serif" font-weight="700" font-size="24" transform="translate(210.667 378)">コマンド</text><path d="M485 200.167C485 192.343 491.343 186 499.167 186L725.833 186C733.657 186 740 192.343 740 200.167L740 256.833C740 264.657 733.657 271 725.833 271L499.167 271C491.343 271 485 264.657 485 256.833Z" stroke="#000000" stroke-width="2" stroke-miterlimit="8" fill="#FFFFFF" fill-rule="evenodd"/><text font-family="Yu Gothic,Yu Gothic_MSFontService,sans-serif" font-weight="700" font-size="24" transform="translate(540.653 221)">パイプライン</text><text font-family="Cambria Math,Cambria Math_MSFontService,sans-serif" font-weight="400" font-size="24" transform="translate(608.82 251)">|</text><path d="M85.1667 249.5 155.833 249.5C165.59 249.5 173.5 269.2 173.5 293.5 173.5 317.801 165.59 337.5 155.833 337.5L85.1667 337.5C75.4097 337.5 67.5001 317.801 67.5001 293.5 67.5001 269.2 75.4097 249.5 85.1667 249.5Z" fill="#B4C7E7" fill-rule="evenodd"/><path d="M155.833 337.5C146.076 337.5 138.167 317.801 138.167 293.5 138.167 269.2 146.076 249.5 155.833 249.5" stroke="#4472C4" stroke-width="1.33333" stroke-miterlimit="8" fill="none" fill-rule="evenodd"/><path d="M85.1667 249.5 155.833 249.5C165.59 249.5 173.5 269.2 173.5 293.5 173.5 317.801 165.59 337.5 155.833 337.5L85.1667 337.5C75.4097 337.5 67.5001 317.801 67.5001 293.5 67.5001 269.2 75.4097 249.5 85.1667 249.5Z" stroke="#4472C4" stroke-width="1.33333" stroke-miterlimit="8" fill="none" fill-rule="evenodd"/><text font-family="Yu Gothic,Yu Gothic_MSFontService,sans-serif" font-weight="700" font-size="24" transform="translate(71.9998 239)">標準入力</text><path d="M376.167 250.5 446.833 250.5C456.59 250.5 464.5 270.423 464.5 295 464.5 319.577 456.59 339.5 446.833 339.5L376.167 339.5C366.41 339.5 358.5 319.577 358.5 295 358.5 270.423 366.41 250.5 376.167 250.5Z" fill="#B4C7E7" fill-rule="evenodd"/><path d="M446.833 339.5C437.076 339.5 429.167 319.577 429.167 295 429.167 270.423 437.076 250.5 446.833 250.5" stroke="#4472C4" stroke-width="1.33333" stroke-miterlimit="8" fill="none" fill-rule="evenodd"/><path d="M376.167 250.5 446.833 250.5C456.59 250.5 464.5 270.423 464.5 295 464.5 319.577 456.59 339.5 446.833 339.5L376.167 339.5C366.41 339.5 358.5 319.577 358.5 295 358.5 270.423 366.41 250.5 376.167 250.5Z" stroke="#4472C4" stroke-width="1.33333" stroke-miterlimit="8" fill="none" fill-rule="evenodd"/><text font-family="Yu Gothic,Yu Gothic_MSFontService,sans-serif" font-weight="700" font-size="24" transform="translate(363.151 241)">標準出力</text><path d="M371.167 404.5 441.833 404.5C451.59 404.5 459.5 424.423 459.5 449 459.5 473.577 451.59 493.5 441.833 493.5L371.167 493.5C361.41 493.5 353.5 473.577 353.5 449 353.5 424.423 361.41 404.5 371.167 404.5Z" fill="#B4C7E7" fill-rule="evenodd"/><path d="M441.833 493.5C432.076 493.5 424.167 473.577 424.167 449 424.167 424.423 432.076 404.5 441.833 404.5" stroke="#4472C4" stroke-width="1.33333" stroke-miterlimit="8" fill="none" fill-rule="evenodd"/><path d="M371.167 404.5 441.833 404.5C451.59 404.5 459.5 424.423 459.5 449 459.5 473.577 451.59 493.5 441.833 493.5L371.167 493.5C361.41 493.5 353.5 473.577 353.5 449 353.5 424.423 361.41 404.5 371.167 404.5Z" stroke="#4472C4" stroke-width="1.33333" stroke-miterlimit="8" fill="none" fill-rule="evenodd"/><text font-family="Yu Gothic,Yu Gothic_MSFontService,sans-serif" font-weight="700" font-size="24" transform="translate(318.374 527)">標準エラー出力</text><path d="M847 295.501C847 272.028 866.028 253 889.501 253L1059.5 253C1082.97 253 1102 272.028 1102 295.501L1102 472.499C1102 495.972 1082.97 515 1059.5 515L889.501 515C866.028 515 847 495.972 847 472.499Z" stroke="#ED7D31" stroke-width="2" stroke-miterlimit="8" fill="#F4B183" fill-rule="evenodd"/><text font-family="Yu Gothic,Yu Gothic_MSFontService,sans-serif" font-weight="700" font-size="24" transform="translate(926.737 392)">コマンド</text><path d="M801.167 263.5 871.833 263.5C881.59 263.5 889.5 283.2 889.5 307.5 889.5 331.801 881.59 351.5 871.833 351.5L801.167 351.5C791.41 351.5 783.5 331.801 783.5 307.5 783.5 283.2 791.41 263.5 801.167 263.5Z" fill="#B4C7E7" fill-rule="evenodd"/><path d="M871.833 351.5C862.076 351.5 854.167 331.801 854.167 307.5 854.167 283.2 862.076 263.5 871.833 263.5" stroke="#4472C4" stroke-width="1.33333" stroke-miterlimit="8" fill="none" fill-rule="evenodd"/><path d="M801.167 263.5 871.833 263.5C881.59 263.5 889.5 283.2 889.5 307.5 889.5 331.801 881.59 351.5 871.833 351.5L801.167 351.5C791.41 351.5 783.5 331.801 783.5 307.5 783.5 283.2 791.41 263.5 801.167 263.5Z" stroke="#4472C4" stroke-width="1.33333" stroke-miterlimit="8" fill="none" fill-rule="evenodd"/><text font-family="Yu Gothic,Yu Gothic_MSFontService,sans-serif" font-weight="700" font-size="24" transform="translate(788.07 253)">標準入力</text><path d="M1092.17 264.5 1162.83 264.5C1172.59 264.5 1180.5 284.423 1180.5 309 1180.5 333.577 1172.59 353.5 1162.83 353.5L1092.17 353.5C1082.41 353.5 1074.5 333.577 1074.5 309 1074.5 284.423 1082.41 264.5 1092.17 264.5Z" fill="#B4C7E7" fill-rule="evenodd"/><path d="M1162.83 353.5C1153.08 353.5 1145.17 333.577 1145.17 309 1145.17 284.423 1153.08 264.5 1162.83 264.5" stroke="#4472C4" stroke-width="1.33333" stroke-miterlimit="8" fill="none" fill-rule="evenodd"/><path d="M1092.17 264.5 1162.83 264.5C1172.59 264.5 1180.5 284.423 1180.5 309 1180.5 333.577 1172.59 353.5 1162.83 353.5L1092.17 353.5C1082.41 353.5 1074.5 333.577 1074.5 309 1074.5 284.423 1082.41 264.5 1092.17 264.5Z" stroke="#4472C4" stroke-width="1.33333" stroke-miterlimit="8" fill="none" fill-rule="evenodd"/><text font-family="Yu Gothic,Yu Gothic_MSFontService,sans-serif" font-weight="700" font-size="24" transform="translate(1079.22 255)">標準出力</text><path d="M1087.17 418.5 1157.83 418.5C1167.59 418.5 1175.5 438.423 1175.5 463 1175.5 487.577 1167.59 507.5 1157.83 507.5L1087.17 507.5C1077.41 507.5 1069.5 487.577 1069.5 463 1069.5 438.423 1077.41 418.5 1087.17 418.5Z" fill="#B4C7E7" fill-rule="evenodd"/><path d="M1157.83 507.5C1148.08 507.5 1140.17 487.577 1140.17 463 1140.17 438.423 1148.08 418.5 1157.83 418.5" stroke="#4472C4" stroke-width="1.33333" stroke-miterlimit="8" fill="none" fill-rule="evenodd"/><path d="M1087.17 418.5 1157.83 418.5C1167.59 418.5 1175.5 438.423 1175.5 463 1175.5 487.577 1167.59 507.5 1157.83 507.5L1087.17 507.5C1077.41 507.5 1069.5 487.577 1069.5 463 1069.5 438.423 1077.41 418.5 1087.17 418.5Z" stroke="#4472C4" stroke-width="1.33333" stroke-miterlimit="8" fill="none" fill-rule="evenodd"/><text font-family="Yu Gothic,Yu Gothic_MSFontService,sans-serif" font-weight="700" font-size="24" transform="translate(1034.44 541)">標準エラー出力</text><path d="M448.535 286.833 461.868 286.904 461.798 300.237 448.465 300.167ZM475.202 286.975 488.535 287.045 488.464 300.378 475.131 300.308ZM501.868 287.116 515.201 287.186 515.13 300.519 501.797 300.449ZM528.534 287.257 541.867 287.327 541.797 300.66 528.464 300.59ZM555.201 287.398 568.534 287.468 568.463 300.801 555.13 300.731ZM581.867 287.539 595.2 287.609 595.129 300.943 581.796 300.872ZM608.533 287.68 621.866 287.75 621.796 301.084 608.463 301.013ZM635.199 287.821 648.533 287.891 648.462 301.225 635.129 301.154ZM661.866 287.962 675.199 288.033 675.128 301.366 661.795 301.295ZM688.532 288.103 701.865 288.174 701.795 301.507 688.461 301.436ZM715.198 288.244 728.531 288.315 728.461 301.648 715.128 301.577ZM741.865 288.385 753.879 288.449 753.808 301.782 741.794 301.718ZM747.283 275.08 787.177 295.292 747.071 315.08Z"/></g></svg>