<svg width="960" height="720" xmlns="http://www.w3.org/2000/svg" xmlns:xlink="http://www.w3.org/1999/xlink" overflow="hidden"><defs><clipPath id="clip0"><rect x="0" y="0" width="960" height="720"/></clipPath></defs><g clip-path="url(#clip0)"><rect x="0" y="0" width="960" height="720" fill="#FFFFFF"/><path d="M89 526.334C89 511.238 101.238 499 116.334 499L835.666 499C850.762 499 863 511.238 863 526.334L863 635.666C863 650.762 850.762 663 835.666 663L116.334 663C101.238 663 89 650.762 89 635.666Z" stroke="#000000" stroke-width="2" stroke-miterlimit="8" fill="#FFFFFF" fill-rule="evenodd"/><path d="M463 111.5C463 99.626 472.626 90 484.5 90L678.5 90C690.374 90 700 99.626 700 111.5L700 197.5C700 209.374 690.374 219 678.5 219L484.5 219C472.626 219 463 209.374 463 197.5Z" stroke="#ED7D31" stroke-width="2" stroke-miterlimit="8" fill="#F4B183" fill-rule="evenodd"/><text font-family="Arial,Arial_MSFontService,sans-serif" font-weight="700" font-size="24" transform="translate(501.333 162)">x</text><text font-family="Arial,Arial_MSFontService,sans-serif" font-weight="700" font-size="24" transform="translate(514.667 162)">args</text><text font-family="Yu Gothic,Yu Gothic_MSFontService,sans-serif" font-weight="700" font-size="24" transform="translate(565.333 162)">コマンド</text><path d="M135 546.5C135 537.94 141.94 531 150.5 531L321.5 531C330.06 531 337 537.94 337 546.5L337 608.5C337 617.06 330.06 624 321.5 624L150.5 624C141.94 624 135 617.06 135 608.5Z" stroke="#ED7D31" stroke-width="2" stroke-miterlimit="8" fill="#F4B183" fill-rule="evenodd"/><text font-family="Yu Gothic,Yu Gothic_MSFontService,sans-serif" font-weight="700" font-size="24" transform="translate(188.051 585)">コマンド</text><path d="M596.167 219.5 596.167 373.246 582.833 373.246 582.833 219.5ZM609.5 366.579 589.5 406.579 569.5 366.579Z" fill="#4472C4"/><path d="M373 546.667C373 538.014 380.014 531 388.667 531L558.333 531C566.986 531 574 538.014 574 546.667L574 609.333C574 617.986 566.986 625 558.333 625L388.667 625C380.014 625 373 617.986 373 609.333Z" stroke="#FFC000" stroke-width="2" stroke-miterlimit="8" fill="#FFD966" fill-rule="evenodd"/><text font-family="Arial,Arial_MSFontService,sans-serif" font-weight="700" font-size="24" transform="translate(412 586)">b</text><text font-family="Arial,Arial_MSFontService,sans-serif" font-weight="700" font-size="24" transform="translate(426.667 586)">unsho.txt</text><path d="M337.5 71.5001 481.5 71.5001C501.382 71.5001 517.5 90.9757 517.5 115 517.5 139.024 501.382 158.5 481.5 158.5L337.5 158.5C317.618 158.5 301.5 139.024 301.5 115 301.5 90.9757 317.618 71.5001 337.5 71.5001Z" fill="#B4C7E7" fill-rule="evenodd"/><path d="M481.5 158.5C461.618 158.5 445.5 139.024 445.5 115 445.5 90.9757 461.618 71.5001 481.5 71.5001" stroke="#4472C4" stroke-width="1.33333" stroke-miterlimit="8" fill="none" fill-rule="evenodd"/><path d="M337.5 71.5001 481.5 71.5001C501.382 71.5001 517.5 90.9757 517.5 115 517.5 139.024 501.382 158.5 481.5 158.5L337.5 158.5C317.618 158.5 301.5 139.024 301.5 115 301.5 90.9757 317.618 71.5001 337.5 71.5001Z" stroke="#4472C4" stroke-width="1.33333" stroke-miterlimit="8" fill="none" fill-rule="evenodd"/><text font-family="Yu Gothic,Yu Gothic_MSFontService,sans-serif" font-weight="700" font-size="21" transform="translate(348.063 122)">標準入力</text><path d="M610 547.5C610 538.94 616.94 532 625.5 532L795.5 532C804.06 532 811 538.94 811 547.5L811 609.5C811 618.06 804.06 625 795.5 625L625.5 625C616.94 625 610 618.06 610 609.5Z" stroke="#FFC000" stroke-width="2" stroke-miterlimit="8" fill="#FFD966" fill-rule="evenodd"/><text font-family="Arial,Arial_MSFontService,sans-serif" font-weight="700" font-size="24" transform="translate(639.949 587)">s</text><text font-family="Arial,Arial_MSFontService,sans-serif" font-weight="700" font-size="24" transform="translate(653.282 587)">yousetu.tx</text><text font-family="Arial,Arial_MSFontService,sans-serif" font-weight="700" font-size="24" transform="translate(773.282 587)">t</text><path d="M373 484.164C373 464.789 388.707 449.082 408.082 449.082L556.918 449.082C576.293 449.082 592 433.375 592 414 592 433.375 607.707 449.082 627.082 449.082L775.918 449.082C795.293 449.082 811 464.788 811 484.163M811 764.836C811 784.211 795.293 799.918 775.918 799.918L627.082 799.918C607.707 799.918 592 815.625 592 835 592 815.625 576.293 799.918 556.918 799.918L408.082 799.918C388.707 799.918 373 784.212 373 764.837" stroke="#000000" stroke-width="4" stroke-miterlimit="8" fill="none" fill-rule="evenodd"/><text font-family="Yu Gothic,Yu Gothic_MSFontService,sans-serif" font-weight="700" font-size="24" transform="translate(375.734 279)">コマンド</text><text font-family="Yu Gothic,Yu Gothic_MSFontService,sans-serif" font-weight="700" font-size="24" transform="translate(471.734 279)">ラインに</text><text font-family="Yu Gothic,Yu Gothic_MSFontService,sans-serif" font-weight="700" font-size="24" transform="translate(423.734 308)">ならべる</text><rect x="16" y="75" width="197" height="165" stroke="#000000" stroke-width="4" stroke-miterlimit="8" fill="#FFFFFF"/><path d="M28.5001 98.8335C28.5001 94.231 32.231 90.5001 36.8334 90.5001L187.167 90.5001C191.769 90.5001 195.5 94.231 195.5 98.8335L195.5 132.167C195.5 136.769 191.769 140.5 187.167 140.5L36.8334 140.5C32.231 140.5 28.5001 136.769 28.5001 132.167Z" stroke="#FFC000" stroke-width="1.33333" stroke-miterlimit="8" fill="#FFD966" fill-rule="evenodd"/><text font-family="Calibri,Calibri_MSFontService,sans-serif" font-weight="400" font-size="24" transform="translate(59.6814 122)">b</text><text font-family="Calibri,Calibri_MSFontService,sans-serif" font-weight="400" font-size="24" transform="translate(72.348 122)">unsho.txt</text><path d="M28.5001 173.833C28.5001 169.231 32.231 165.5 36.8334 165.5L187.167 165.5C191.769 165.5 195.5 169.231 195.5 173.833L195.5 207.167C195.5 211.769 191.769 215.5 187.167 215.5L36.8334 215.5C32.231 215.5 28.5001 211.769 28.5001 207.167Z" stroke="#FFC000" stroke-width="1.33333" stroke-miterlimit="8" fill="#FFD966" fill-rule="evenodd"/><text font-family="Calibri,Calibri_MSFontService,sans-serif" font-weight="400" font-size="24" transform="translate(52.6846 198)">syousetu.txt</text><text font-family="Yu Gothic,Yu Gothic_MSFontService,sans-serif" font-weight="700" font-size="24" transform="translate(44.8285 66)">引数リスト</text><path d="M214.5 107.833 268.58 107.833 268.58 121.167 214.5 121.167ZM261.913 94.5001 301.913 114.5 261.913 134.5Z" fill="#4472C4"/><path d="M718 111.834C718 99.7753 727.775 90 739.834 90L922.166 90C934.225 90 944 99.7753 944 111.834L944 199.166C944 211.225 934.225 221 922.166 221L739.834 221C727.775 221 718 211.225 718 199.166Z" stroke="#ED7D31" stroke-width="2" stroke-miterlimit="8" fill="#F4B183" fill-rule="evenodd"/><text font-family="Yu Gothic,Yu Gothic_MSFontService,sans-serif" font-weight="700" font-size="24" transform="translate(783.052 163)">コマンド</text></g></svg>